<?xml version="1.0" standalone="no"?>
<!DOCTYPE svg PUBLIC "-//W3C//DTD SVG 20010904//EN"
 "http://www.w3.org/TR/2001/REC-SVG-20010904/DTD/svg10.dtd">
<svg version="1.0" xmlns="http://www.w3.org/2000/svg"
 width="146.000000pt" height="146.000000pt" viewBox="0 0 146.000000 146.000000"
 preserveAspectRatio="xMidYMid meet">
<metadata>
Created by potrace 1.11, written by Peter Selinger 2001-2013
</metadata>
<g transform="translate(0.000000,146.000000) scale(0.100000,-0.100000)"
fill="#000000" stroke="none">
<path d="M341 1189 c-10 -4 -26 -35 -40 -80 -13 -41 -28 -87 -34 -104 -7 -16
-12 -34 -13 -40 -1 -5 -13 -46 -28 -90 -14 -44 -26 -83 -26 -87 0 -3 -4 -17
-9 -30 -5 -13 -9 -25 -9 -28 -1 -3 -10 -31 -21 -62 -11 -32 -18 -58 -16 -58 2
0 -4 -20 -15 -45 -11 -25 -20 -49 -20 -53 0 -4 -7 -32 -16 -62 -12 -40 -13
-59 -5 -72 6 -9 8 -23 5 -31 -3 -8 2 -14 10 -14 8 0 13 4 10 9 -3 4 0 8 5 8
10 0 15 -14 12 -32 0 -5 4 -8 9 -8 6 0 10 8 8 17 -3 19 14 22 45 9 10 -5 24
-3 34 5 14 12 15 11 9 -11 -4 -14 -4 -20 1 -14 9 12 58 28 102 32 7 1 11 8 7
17 -3 8 0 14 7 12 7 -1 11 4 10 11 -2 6 2 12 8 12 5 0 7 5 4 10 -3 6 -2 10 3
10 5 0 8 11 7 25 -2 14 1 27 5 30 5 3 6 13 3 22 -5 11 -3 14 6 8 10 -6 11 -3
2 14 -7 11 -8 21 -3 21 4 0 9 10 10 23 1 12 3 33 5 47 3 14 5 29 6 33 0 5 7 5
14 1 7 -5 7 -1 -3 12 -8 10 -10 16 -6 12 5 -4 15 -3 23 4 11 9 12 7 6 -8 -6
-17 -5 -18 12 -4 11 9 16 10 11 3 -4 -7 -3 -13 3 -13 5 0 12 6 14 13 4 8 6 8
6 -2 1 -11 5 -10 16 5 14 18 15 18 8 0 -5 -16 -3 -17 13 -8 15 8 23 7 38 -6
18 -16 18 -16 7 5 -10 19 -9 22 3 17 9 -3 17 -13 20 -22 7 -25 1 -106 -9 -122
-5 -9 -4 -11 3 -6 17 10 15 0 -4 -18 -8 -9 -11 -16 -6 -16 5 0 8 -27 7 -60 -2
-36 1 -60 7 -60 6 0 8 -9 5 -20 -3 -11 -1 -18 3 -15 5 3 11 1 15 -4 3 -6 13
-7 22 -4 12 5 14 3 8 -7 -6 -9 -4 -11 4 -6 7 5 10 15 6 23 -4 13 -3 14 10 3 8
-7 12 -17 9 -22 -4 -6 5 -3 19 7 24 15 26 15 36 -2 9 -16 10 -15 11 7 0 20 2
22 10 10 8 -12 11 -13 19 -1 6 9 10 10 12 2 3 -7 16 -14 31 -15 16 -2 25 1 22
8 -2 6 1 18 6 26 9 13 11 13 21 0 9 -13 10 -12 5 2 -3 10 -1 20 5 23 5 4 8 22
6 41 -3 19 -1 37 3 39 4 2 6 -6 5 -18 0 -12 2 -29 6 -38 4 -8 4 -21 -1 -29
-13 -20 -2 -32 20 -20 16 8 18 6 16 -15 -2 -13 0 -22 5 -20 4 3 9 2 12 -2 2
-5 2 -2 0 6 -2 8 2 11 12 7 8 -3 15 0 15 7 0 8 3 7 9 -2 8 -12 12 -12 25 -2
13 11 16 11 17 0 1 -8 1 -18 0 -22 -1 -5 3 -6 9 -2 6 3 8 11 5 16 -4 5 3 6 17
0 13 -4 29 -6 36 -4 7 3 19 0 26 -6 9 -8 13 -7 13 4 0 8 -5 11 -10 8 -6 -3 -7
-1 -3 6 4 6 11 9 15 7 4 -3 20 6 36 20 15 13 22 24 15 24 -9 0 -10 3 -1 13 6
8 8 16 6 19 -6 6 -14 40 -20 83 -2 17 -7 41 -10 55 -19 86 -22 142 -7 157 14
14 17 13 29 -3 7 -10 13 -13 13 -8 0 9 24 15 55 15 17 0 39 -6 54 -15 9 -6 12
-5 8 1 -4 6 0 14 9 17 12 5 14 1 9 -17 -4 -14 -3 -18 3 -9 5 7 18 14 30 15 11
0 20 4 20 7 -1 3 2 16 6 30 4 15 1 44 -7 70 -8 25 -38 118 -66 208 -46 143
-54 162 -74 163 -90 5 -370 3 -373 -3 -2 -3 -5 -18 -6 -31 -1 -14 -6 -23 -10
-21 -5 3 -6 10 -3 15 4 5 2 17 -4 26 -7 14 -24 18 -83 19 -83 1 -105 -7 -110
-38 -2 -14 -12 -24 -28 -28 -15 -4 -32 -19 -42 -40 -19 -39 -20 -38 -22 5 -1
25 -6 31 -29 33 -23 3 -27 8 -27 35 l0 32 -76 0 c-41 0 -83 -3 -93 -6z m527
-94 c-3 -3 -9 2 -12 12 -6 14 -5 15 5 6 7 -7 10 -15 7 -18z m-1 -77 c-3 -8 -6
-5 -6 6 -1 11 2 17 5 13 3 -3 4 -12 1 -19z m0 -50 c-3 -7 -5 -2 -5 12 0 14 2
19 5 13 2 -7 2 -19 0 -25z m6 -43 c-7 -21 -12 -19 -10 4 0 11 5 18 9 15 4 -3
5 -11 1 -19z m12 -145 c3 -5 1 -10 -4 -10 -6 0 -11 5 -11 10 0 6 2 10 4 10 3
0 8 -4 11 -10z m2 -145 c0 -8 -4 -12 -9 -9 -5 3 -6 10 -3 15 9 13 12 11 12 -6z
m3 -65 c0 -11 -2 -20 -4 -20 -2 0 -6 9 -9 20 -3 11 -1 20 4 20 5 0 9 -9 9 -20z
m-3 -52 c-3 -8 -6 -5 -6 6 -1 11 2 17 5 13 3 -3 4 -12 1 -19z"/>
<path d="M1165 340 c3 -5 8 -10 11 -10 2 0 4 5 4 10 0 6 -5 10 -11 10 -5 0 -7
-4 -4 -10z"/>
<path d="M157 323 c3 -7 6 -13 8 -13 2 0 5 6 8 13 3 8 -1 14 -8 14 -7 0 -11
-6 -8 -14z"/>
<path d="M297 333 c-4 -3 -7 -11 -7 -17 0 -6 5 -5 12 2 6 6 9 14 7 17 -3 3 -9
2 -12 -2z"/>
<path d="M976 322 c-3 -5 1 -9 9 -9 8 0 12 4 9 9 -3 4 -7 8 -9 8 -2 0 -6 -4
-9 -8z"/>
</g>
</svg>
